<svg width="15" height="15" viewBox="0 0 15 15" fill="none" xmlns="http://www.w3.org/2000/svg">
<circle cx="7.5" cy="7.5" r="7.5" fill="#EE2C41" fill-opacity="0.6"/>
<path d="M4.18641 5.08562L6.60018 7.49957L7.50043 6.59933L5.08513 4.18722C4.79635 3.93789 4.43318 3.93789 4.18641 4.18555C3.93786 4.4341 3.93786 4.79549 4.18641 5.08562Z" fill="black"/>
<path d="M4.18641 9.91439L6.60018 7.50044L7.50043 8.40069L5.08513 10.8128C4.79635 11.0621 4.43318 11.0621 4.18641 10.8145C3.93786 10.5659 3.93786 10.2045 4.18641 9.91439Z" fill="black"/>
<path d="M10.8144 5.08561L8.40067 7.49956L7.50043 6.59933L9.91572 4.18721C10.2045 3.93788 10.5677 3.93788 10.8144 4.18554C11.063 4.43409 11.063 4.79548 10.8144 5.08561Z" fill="black"/>
<path d="M10.8144 9.91439L8.40067 7.50044L7.50043 8.40069L9.91572 10.8128C10.2045 11.0621 10.5677 11.0621 10.8144 10.8145C11.063 10.5659 11.063 10.2045 10.8144 9.91439Z" fill="black"/>
<path d="M8.40067 7.49956L7.50043 6.59933L6.60018 7.49957L7.50043 8.40069L8.40067 7.49956Z" fill="black"/>
</svg>
