<svg width="12" height="13" viewBox="0 0 12 13" fill="none" xmlns="http://www.w3.org/2000/svg">
<path d="M1.79998 11.0305V11.8999C1.79998 12.059 1.73677 12.2116 1.62425 12.3241C1.51173 12.4367 1.35912 12.4999 1.19999 12.4999C1.04086 12.4999 0.888249 12.4367 0.775728 12.3241C0.663207 12.2116 0.599994 12.059 0.599994 11.8999V9.49991C0.599994 9.34078 0.663207 9.18817 0.775728 9.07565C0.888249 8.96313 1.04086 8.89991 1.19999 8.89991H3.59996C3.75909 8.89991 3.9117 8.96313 4.02422 9.07565C4.13674 9.18817 4.19996 9.34078 4.19996 9.49991C4.19996 9.65904 4.13674 9.81165 4.02422 9.92417C3.9117 10.0367 3.75909 10.0999 3.59996 10.0999H2.55717C3.47516 10.8415 4.74175 11.2999 5.99994 11.2999C7.27296 11.2999 8.49385 10.7942 9.39402 9.89402C10.2942 8.99385 10.7999 7.77296 10.7999 6.49994C10.7999 6.34081 10.8631 6.1882 10.9756 6.07568C11.0881 5.96316 11.2408 5.89994 11.3999 5.89994C11.559 5.89994 11.7116 5.96316 11.8241 6.07568C11.9367 6.1882 11.9999 6.34081 11.9999 6.49994C11.9999 9.8137 9.3137 12.4999 5.99994 12.4999C4.47055 12.4999 2.93577 11.9503 1.79998 11.0305ZM9.4427 2.89998C8.52471 2.15838 7.25813 1.69999 5.99994 1.69999C4.72691 1.69999 3.50603 2.2057 2.60586 3.10586C1.7057 4.00603 1.19999 5.22691 1.19999 6.49994C1.19999 6.65907 1.13677 6.81168 1.02425 6.9242C0.911733 7.03672 0.759122 7.09993 0.599994 7.09993C0.440866 7.09993 0.288255 7.03672 0.175734 6.9242C0.0632134 6.81168 0 6.65907 0 6.49994C0 3.18617 2.68617 0.5 5.99994 0.5C7.52932 0.5 9.06411 1.04959 10.1999 1.96938V1.09999C10.1999 0.940866 10.2631 0.788255 10.3756 0.675734C10.4882 0.563213 10.6408 0.5 10.7999 0.5C10.959 0.5 11.1116 0.563213 11.2241 0.675734C11.3367 0.788255 11.3999 0.940866 11.3999 1.09999V3.49997C11.3999 3.6591 11.3367 3.81171 11.2241 3.92423C11.1116 4.03675 10.959 4.09996 10.7999 4.09996H8.39991C8.24079 4.09996 8.08818 4.03675 7.97565 3.92423C7.86313 3.81171 7.79992 3.6591 7.79992 3.49997C7.79992 3.34084 7.86313 3.18823 7.97565 3.07571C8.08818 2.96319 8.24079 2.89998 8.39991 2.89998H9.4427Z" fill="#797979"/>
</svg>
