<svg width="15" height="15" viewBox="0 0 15 15" fill="none" xmlns="http://www.w3.org/2000/svg">
<circle cx="7.5" cy="7.5" r="7.5" fill="#FFD63E" fill-opacity="0.6"/>
<path d="M6.496 8.712C6.45933 8.33067 6.47767 8.008 6.551 7.744C6.62433 7.47267 6.72333 7.24167 6.848 7.051C6.98 6.853 7.12667 6.68433 7.288 6.545C7.45667 6.39833 7.61067 6.259 7.75 6.127C7.89667 5.995 8.01767 5.85933 8.113 5.72C8.20833 5.57333 8.256 5.401 8.256 5.203C8.256 4.94633 8.18267 4.741 8.036 4.587C7.89667 4.433 7.64367 4.356 7.277 4.356C7.15967 4.356 7.035 4.37067 6.903 4.4C6.771 4.422 6.639 4.45867 6.507 4.51C6.375 4.554 6.24667 4.609 6.122 4.675C6.00467 4.73367 5.89833 4.796 5.803 4.862L5.253 3.806C5.53167 3.61533 5.85067 3.45767 6.21 3.333C6.57667 3.20833 7.01667 3.146 7.53 3.146C8.21933 3.146 8.75833 3.31467 9.147 3.652C9.53567 3.982 9.73 4.42933 9.73 4.994C9.73 5.368 9.67867 5.67967 9.576 5.929C9.48067 6.171 9.35967 6.38 9.213 6.556C9.06633 6.72467 8.905 6.875 8.729 7.007C8.553 7.139 8.39167 7.282 8.245 7.436C8.09833 7.58267 7.97367 7.755 7.871 7.953C7.76833 8.151 7.717 8.404 7.717 8.712H6.496ZM6.276 10.274C6.276 10.0173 6.35667 9.81567 6.518 9.669C6.67933 9.515 6.892 9.438 7.156 9.438C7.43467 9.438 7.65467 9.515 7.816 9.669C7.97733 9.81567 8.058 10.0173 8.058 10.274C8.058 10.5307 7.97733 10.736 7.816 10.89C7.65467 11.044 7.43467 11.121 7.156 11.121C6.892 11.121 6.67933 11.044 6.518 10.89C6.35667 10.736 6.276 10.5307 6.276 10.274Z" fill="black"/>
</svg>
